<svg width="162" height="162" viewBox="0 0 162 162" fill="none" xmlns="http://www.w3.org/2000/svg">
<path d="M24 31.7739L34.4208 148.685L81.2029 161.666L128.106 148.665L138.54 31.7739H24ZM45.313 55.6668H81.2163V70.0079H46.613L45.313 55.6668ZM81.2702 99.027H98.8783L97.2145 117.625L81.2702 121.93V99.027ZM81.2702 84.6926V70.0079H101.425L100.118 84.6926H81.2702ZM47.8997 84.6926H81.2231V99.0337H49.1863L47.8997 84.6926ZM119.167 141.222L81.2702 151.73V136.85L81.2029 136.87L51.8335 128.713L49.8261 106.201H64.2212L65.245 117.639L81.2096 121.95H81.2231V136.864L81.2702 136.85L110.619 128.713L117.14 55.6668H81.2702V41.3257H128.086L119.167 141.222Z" fill="#D9D9D9"/>
<path d="M117.14 55.667L110.619 128.713L81.2702 136.844V121.93L97.2145 117.625L98.8783 99.0272H81.2702V84.6928H100.118L101.425 70.0081H81.2702V55.667H117.14Z" fill="#D9D9D9"/>
<path d="M81.2702 84.6929H81.223V99.034H81.2702V84.6929Z" fill="#D9D9D9"/>
<path d="M81.2702 55.667H81.223V70.0081H81.2702V55.667Z" fill="#D9D9D9"/>
<path d="M81.2702 121.937H81.2163V136.85H81.2702V121.937Z" fill="#D9D9D9"/>
<path d="M50.9578 0H68.3234V7.2615H58.2193V14.523H68.3234V21.7845H50.9578V0Z" fill="#D9D9D9"/>
<path d="M71.7993 0H89.1649V6.31845H79.0608V7.58483H89.1649V22.1078H71.7993V15.4728H81.9034V14.2064H71.7993V0Z" fill="#D9D9D9"/>
<path d="M92.6339 0H110V6.31845H99.8954V7.58483H110V22.1078H92.6339V15.4728H102.738V14.2064H92.6339V0Z" fill="#D9D9D9"/>
<path d="M117.14 55.667L110.619 128.713L81.2702 136.844L81.223 136.857V121.943L81.2702 121.93L97.2145 117.625L98.8783 99.0272H81.223V84.6928H100.118L101.425 70.0081H81.223V55.667H117.14Z" fill="#D9D9D9"/>
</svg>
