<svg width="162" height="162" viewBox="0 0 162 162" fill="none" xmlns="http://www.w3.org/2000/svg">
<path d="M34.67 0H41.9315V7.20087H48.6271V0H55.8886V21.7845H48.6271V14.523H41.9988V21.7845H34.67V0ZM65.4876 7.2615H59.0816V0H79.1955V7.2615H72.7558V21.7845H65.4876V7.2615ZM82.3817 0H89.9934L94.6683 7.6724L99.3364 0H106.948V21.7845H99.6867V10.9866L94.6009 18.8139L89.5152 10.9866V21.7845H82.3817V0ZM110.545 0H117.807V14.5904H128.099V21.7912H110.545V0Z" fill="#D9D9D9"/>
<path d="M24 31.7671L34.4207 148.719L81.1826 161.666L128.133 148.658L138.554 31.7671H24ZM45.2793 55.6667H81.2096V70.0011H61.0013L62.3283 84.6858H81.2096V98.9865H49.193L45.2793 55.6667ZM81.2769 99.0201H98.8985L97.228 117.652L81.2769 121.93V99.0201ZM119.167 141.141L81.2769 151.717V136.911L51.847 128.699L49.8261 106.187H64.2279L65.2383 117.652L81.25 121.936L81.2163 121.943V136.843L81.2769 136.83L110.579 128.699L114.526 84.6858H81.2769V70.0011H115.82L117.147 55.6667H81.2769V41.366H128.106L119.167 141.141Z" fill="#D9D9D9"/>
<path d="M81.2769 84.686H114.526L110.579 128.7L81.2769 136.83V121.93L97.2212 117.652L98.8985 99.0204H81.2769V84.686Z" fill="#D9D9D9"/>
<path d="M117.147 55.667L115.82 70.0014H81.2769V55.667H117.147Z" fill="#D9D9D9"/>
<path d="M81.2163 55.667V70.0014H81.277V55.667H81.2163ZM81.2163 84.686V98.9867H81.277V84.686H81.2163ZM81.2433 121.937L81.2096 121.943V136.844L81.277 136.83V121.943L81.2433 121.937Z" fill="#D9D9D9"/>
<path d="M81.2163 55.667V70.0014H115.82L117.147 55.667H81.2163ZM81.2163 84.686V99.0204H98.8986L97.228 117.652L81.277 121.93L81.2433 121.937L81.2096 121.943V136.844L81.277 136.83L110.579 128.7L114.526 84.686H81.2163Z" fill="#D9D9D9"/>
</svg>
