<svg width="162" height="162" viewBox="0 0 162 162" fill="none" xmlns="http://www.w3.org/2000/svg">
<g clip-path="url(#clip0_30_522)">
<path d="M0 0V162H162V0H0ZM88.1598 126.346C88.1598 142.112 78.9027 149.308 65.4147 149.308C53.2286 149.308 46.1772 143.016 42.5612 135.386L54.9643 127.9C57.3509 132.131 59.5205 135.711 64.7638 135.711C69.754 135.711 72.9362 133.758 72.9362 126.129V74.3826H88.1598V126.346ZM124.176 149.308C110.037 149.308 100.888 142.582 96.4406 133.758L108.844 126.599C112.098 131.914 116.365 135.856 123.85 135.856C130.142 135.856 134.192 132.71 134.192 128.334C134.192 123.127 130.07 121.283 123.091 118.209L119.294 116.582C108.301 111.917 101.033 106.023 101.033 93.6201C101.033 82.1933 109.748 73.5147 123.308 73.5147C132.999 73.5147 139.942 76.8777 144.932 85.7009L133.071 93.2946C130.468 88.6299 127.647 86.7857 123.272 86.7857C118.824 86.7857 116.004 89.6062 116.004 93.2946C116.004 97.8509 118.824 99.6951 125.369 102.552L129.166 104.179C142.112 109.712 149.38 115.389 149.38 128.117C149.38 141.786 138.604 149.308 124.176 149.308Z" fill="#D9D9D9"/>
</g>
<defs>
<clipPath id="clip0_30_522">
<rect width="162" height="162" fill="white"/>
</clipPath>
</defs>
</svg>
