<svg width="45" height="44" viewBox="0 0 45 44" fill="none" xmlns="http://www.w3.org/2000/svg">
<path fill-rule="evenodd" clip-rule="evenodd" d="M22.5135 0.880859C10.3491 0.880859 0.486511 10.7416 0.486511 22.9079C0.486511 32.6402 6.79726 40.8966 15.5493 43.8097C16.6507 44.0135 17.0545 43.3325 17.0545 42.7506C17.0545 42.2256 17.0343 40.491 17.0251 38.6499C10.898 39.9825 9.60387 36.0507 9.60387 36.0507C8.60164 33.5047 7.15887 32.8274 7.15887 32.8274C5.15991 31.4599 7.30938 31.4893 7.30938 31.4893C9.52126 31.6453 10.685 33.7599 10.685 33.7599C12.6491 37.1263 15.8375 36.1535 17.0949 35.59C17.2931 34.1655 17.864 33.1945 18.4936 32.6438C13.6018 32.0877 8.45846 30.1988 8.45846 21.7588C8.45846 19.3542 9.31935 17.3883 10.7291 15.8464C10.4996 15.2902 9.74521 13.0508 10.942 10.0166C10.942 10.0166 12.7923 9.42551 17.0013 12.2743C18.7579 11.7861 20.6412 11.5419 22.5135 11.5328C24.3858 11.5419 26.271 11.7861 28.0313 12.2743C32.2348 9.42367 34.0832 10.0166 34.0832 10.0166C35.2819 13.0508 34.5274 15.2902 34.2998 15.8464C35.7114 17.3883 36.5668 19.3542 36.5668 21.7588C36.5668 30.219 31.4143 32.0821 26.5096 32.6273C27.2989 33.3102 28.0038 34.652 28.0038 36.706C28.0038 39.6539 27.9781 42.0255 27.9781 42.7506C27.9781 43.3361 28.3746 44.0245 29.4906 43.8079C38.239 40.8911 44.5424 32.6383 44.5424 22.9097C44.5406 10.7435 34.678 0.880859 22.5135 0.880859Z" fill="#D9D9D9"/>
<path d="M8.82926 32.5082C8.78153 32.6184 8.60899 32.6514 8.45113 32.5762C8.29143 32.5046 8.20149 32.354 8.25288 32.2457C8.30061 32.1338 8.47315 32.1026 8.63285 32.1778C8.79255 32.2476 8.88433 32.3981 8.82926 32.5082Z" fill="#D9D9D9"/>
<path d="M9.7213 33.5031C9.61667 33.6004 9.41109 33.5545 9.27158 33.4021C9.12657 33.248 9.10087 33.0424 9.20734 32.9451C9.31564 32.8478 9.51388 32.8937 9.65889 33.0479C9.8039 33.2002 9.83144 33.404 9.7213 33.5031Z" fill="#D9D9D9"/>
<path d="M10.5895 34.7713C10.4537 34.865 10.2334 34.7768 10.0976 34.5823C9.96174 34.3859 9.96174 34.1509 10.1012 34.0573C10.2371 33.9637 10.4555 34.0481 10.5932 34.2427C10.7272 34.4409 10.7272 34.6759 10.5895 34.7713Z" fill="#D9D9D9"/>
<path d="M11.779 35.998C11.6579 36.132 11.4009 36.0952 11.2137 35.9135C11.0209 35.7355 10.9677 35.484 11.0888 35.35C11.2118 35.216 11.4706 35.2545 11.6597 35.4344C11.8506 35.6125 11.9075 35.8658 11.779 35.998Z" fill="#D9D9D9"/>
<path d="M13.4218 36.7081C13.3686 36.8806 13.1208 36.9596 12.8711 36.8861C12.6215 36.8109 12.4581 36.609 12.5095 36.4346C12.5609 36.2602 12.8106 36.1794 13.062 36.2584C13.3098 36.3318 13.4732 36.5337 13.4218 36.7081Z" fill="#D9D9D9"/>
<path d="M15.2244 36.8404C15.23 37.0221 15.0189 37.1727 14.7564 37.1763C14.4939 37.1818 14.2791 37.035 14.2773 36.8569C14.2773 36.6734 14.4847 36.5247 14.7472 36.5192C15.0097 36.5137 15.2244 36.6605 15.2244 36.8404Z" fill="#D9D9D9"/>
<path d="M16.9022 36.5557C16.9334 36.7319 16.7516 36.9154 16.491 36.9632C16.2358 37.0109 15.9991 36.9008 15.966 36.7246C15.9348 36.5428 16.1202 36.3611 16.3754 36.3134C16.6342 36.2675 16.8691 36.374 16.9022 36.5557Z" fill="#D9D9D9"/>
</svg>
