<svg width="45" height="45" viewBox="0 0 45 45" fill="none" xmlns="http://www.w3.org/2000/svg">
<g clip-path="url(#clip0_37_36)">
<path d="M22.4865 4.8494C28.3677 4.8494 29.0652 4.87142 31.3873 4.97789C33.7882 5.08802 36.2607 5.63503 38.01 7.38434C39.7759 9.15017 40.3064 11.5988 40.4165 14.0071C40.523 16.3291 40.545 17.0267 40.545 22.9079C40.545 28.7891 40.523 29.4866 40.4165 31.8086C40.3082 34.1967 39.7483 36.6931 38.01 38.4314C36.2442 40.1973 33.7974 40.7278 31.3873 40.8379C29.0652 40.9444 28.3677 40.9664 22.4865 40.9664C16.6053 40.9664 15.9078 40.9444 13.5857 40.8379C11.216 40.7296 8.68657 40.1569 6.96295 38.4314C5.2063 36.6748 4.66664 34.2022 4.5565 31.8086C4.45004 29.4866 4.42801 28.7891 4.42801 22.9079C4.42801 17.0267 4.45004 16.3291 4.5565 14.0071C4.6648 11.6282 5.23016 9.11713 6.96295 7.38434C8.72511 5.62218 11.183 5.08802 13.5857 4.97789C15.9078 4.87142 16.6053 4.8494 22.4865 4.8494ZM22.4865 0.880859C16.5043 0.880859 15.7536 0.906558 13.404 1.01302C9.99901 1.16905 6.61786 2.11621 4.15634 4.57773C1.68564 7.04843 0.74766 10.4222 0.591635 13.8254C0.485171 16.175 0.459473 16.9257 0.459473 22.9079C0.459473 28.8901 0.485171 29.6408 0.591635 31.9904C0.74766 35.3917 1.69849 38.782 4.15634 41.238C6.6252 43.7069 10.0045 44.6467 13.404 44.8027C15.7536 44.9092 16.5043 44.9349 22.4865 44.9349C28.4687 44.9349 29.2194 44.9092 31.569 44.8027C34.9722 44.6467 38.357 43.6977 40.8167 41.238C43.2892 38.7655 44.2253 35.3935 44.3814 31.9904C44.4878 29.6408 44.5135 28.8901 44.5135 22.9079C44.5135 16.9257 44.4878 16.175 44.3814 13.8254C44.2253 10.4204 43.2763 7.03741 40.8167 4.57773C38.3515 2.11254 34.963 1.16721 31.569 1.01302C29.2194 0.906558 28.4687 0.880859 22.4865 0.880859Z" fill="#D9D9D9"/>
<path d="M22.4865 11.5972C16.24 11.5972 11.1756 16.6615 11.1756 22.908C11.1756 29.1545 16.24 34.2189 22.4865 34.2189C28.733 34.2189 33.7974 29.1545 33.7974 22.908C33.7974 16.6615 28.733 11.5972 22.4865 11.5972ZM22.4865 30.2504C18.4317 30.2504 15.1441 26.9629 15.1441 22.908C15.1441 18.8532 18.4317 15.5657 22.4865 15.5657C26.5413 15.5657 29.8288 18.8532 29.8288 22.908C29.8288 26.9629 26.5413 30.2504 22.4865 30.2504Z" fill="#D9D9D9"/>
<path d="M34.2452 13.7923C35.7051 13.7923 36.8885 12.6089 36.8885 11.1491C36.8885 9.68928 35.7051 8.50586 34.2452 8.50586C32.7854 8.50586 31.602 9.68928 31.602 11.1491C31.602 12.6089 32.7854 13.7923 34.2452 13.7923Z" fill="#D9D9D9"/>
</g>
<defs>
<clipPath id="clip0_37_36">
<rect width="44.0541" height="44.0541" fill="white" transform="translate(0.459473 0.880859)"/>
</clipPath>
</defs>
</svg>
