<svg width="45" height="45" viewBox="0 0 45 45" fill="none" xmlns="http://www.w3.org/2000/svg">
<path d="M38.4829 38.4196H31.955V28.1964C31.955 25.7584 31.9116 22.6213 28.5598 22.6213C25.1601 22.6213 24.6391 25.2764 24.6391 28.0206V38.4196H18.1134V17.3958H24.3808V20.268H24.4676C25.7463 18.084 28.1212 16.7792 30.6503 16.8726C37.2672 16.8726 38.4851 21.2254 38.4851 26.8851L38.4829 38.4196ZM10.7475 14.5214C8.65479 14.5214 6.95931 12.8259 6.95931 10.7331C6.95931 8.64024 8.65479 6.9447 10.7475 6.9447C12.8403 6.9447 14.5358 8.64024 14.5358 10.7331C14.5358 12.8259 12.8403 14.5214 10.7475 14.5214ZM14.0104 38.4196H7.47599V17.3958H14.0104V38.4196ZM41.7371 0.883327H4.19576C2.42213 0.863788 0.967632 2.28578 0.945923 4.05947V41.7564C0.967632 43.5322 2.42213 44.9542 4.19576 44.9347H41.7371C43.5151 44.9564 44.9761 43.5344 45 41.7564V4.0573C44.9739 2.27927 43.5129 0.857275 41.7371 0.881156" fill="#D9D9D9"/>
</svg>
