<svg width="45" height="45" viewBox="0 0 45 45" fill="none" xmlns="http://www.w3.org/2000/svg">
<path fill-rule="evenodd" clip-rule="evenodd" d="M22.027 0C9.8626 0 0 9.8626 0 22.027C0 34.1915 9.8626 44.0541 22.027 44.0541C34.1915 44.0541 44.0541 34.1915 44.0541 22.027C44.0541 9.8626 34.1915 0 22.027 0ZM32.2366 14.9802C31.9061 18.4623 30.4707 26.9152 29.742 30.8158C29.4336 32.4678 28.8242 33.0203 28.2368 33.0736C26.9574 33.1911 25.9864 32.2274 24.7474 31.416C22.809 30.1458 21.7131 29.3547 19.8317 28.1138C17.6565 26.6802 19.0662 25.8928 20.3052 24.606C20.6301 24.2683 26.2654 19.1415 26.3755 18.6771C26.3884 18.6183 26.4031 18.4017 26.2727 18.2879C26.1424 18.1741 25.9533 18.2127 25.8175 18.2439C25.6229 18.2879 22.5263 20.3346 16.5258 24.3839C15.6465 24.9878 14.8499 25.2815 14.1358 25.2668C13.3502 25.2503 11.8377 24.8226 10.7125 24.4555C9.33395 24.0076 8.23627 23.769 8.33172 23.0091C8.38128 22.6126 8.92645 22.2069 9.96907 21.7921C16.3899 18.9946 20.6724 17.1499 22.8145 16.2578C28.9325 13.7137 30.2027 13.2713 31.0324 13.2566C32.0714 13.2419 32.321 14.0991 32.2366 14.9802Z" fill="#D9D9D9"/>
</svg>
