<svg width="45" height="45" viewBox="0 0 45 45" fill="none" xmlns="http://www.w3.org/2000/svg">
<path fill-rule="evenodd" clip-rule="evenodd" d="M38.4299 7.28338C34.3072 3.15699 28.8261 0.882695 22.9871 0.880859C10.9549 0.880859 1.16203 10.6719 1.15652 22.7096C1.15468 26.557 2.16059 30.3126 4.07143 33.624L0.972961 44.9349L12.5445 41.8989C15.7329 43.639 19.3233 44.5549 22.9761 44.5568H22.9853C35.0157 44.5568 44.8104 34.7639 44.8159 22.7262C44.8196 16.8945 42.5508 11.4079 38.4299 7.28338ZM22.9871 40.8691H22.9798C19.7235 40.8691 16.5314 39.9935 13.745 38.3397L13.0823 37.9468L6.21539 39.7475L8.04914 33.0513L7.61778 32.3648C5.80055 29.4756 4.84238 26.1367 4.84421 22.7096C4.84788 12.7057 12.9887 4.56672 22.9963 4.56672C27.8423 4.56672 32.3982 6.45737 35.8234 9.88624C39.2486 13.317 41.1337 17.8747 41.1319 22.7225C41.1264 32.7301 32.9874 40.8691 22.9871 40.8691ZM32.9397 27.2803C32.3945 27.0067 29.7127 25.687 29.2116 25.5052C28.7123 25.3235 28.3489 25.2317 27.9836 25.7769C27.6183 26.3221 26.5757 27.5519 26.2563 27.9172C25.9388 28.2806 25.6194 28.3265 25.0742 28.053C24.529 27.7795 22.7705 27.205 20.6872 25.3455C19.0663 23.8991 17.9705 22.1131 17.6529 21.5661C17.3354 21.0191 17.6199 20.7254 17.8916 20.4537C18.1375 20.2096 18.4367 19.8168 18.7102 19.4974C18.9856 19.1816 19.0755 18.954 19.2591 18.5888C19.4408 18.2253 19.3508 17.9059 19.2132 17.6324C19.0755 17.3607 17.9852 14.6753 17.5318 13.5831C17.0894 12.5185 16.6397 12.6635 16.3038 12.647C15.9862 12.6304 15.6228 12.6286 15.2575 12.6286C14.894 12.6286 14.303 12.7644 13.8037 13.3114C13.3044 13.8584 11.8947 15.1782 11.8947 17.8619C11.8947 20.5473 13.8496 23.141 14.1213 23.5045C14.3929 23.8679 17.9668 29.3783 23.4387 31.7407C24.7401 32.3024 25.757 32.6383 26.5482 32.8898C27.8551 33.3046 29.0446 33.2459 29.9844 33.1064C31.0325 32.9504 33.2114 31.7866 33.6666 30.5127C34.1218 29.2388 34.1218 28.1448 33.9841 27.919C33.8483 27.6896 33.4849 27.5538 32.9397 27.2803Z" fill="#D9D9D9"/>
</svg>
