<svg width="30" height="34" viewBox="0 0 30 34" fill="none" xmlns="http://www.w3.org/2000/svg">
<path d="M15.139 33.5524C14.8986 33.5524 14.6583 33.5524 14.3812 33.5282C14.3212 33.4813 14.3017 33.4453 14.2744 33.4379C12.2507 32.8837 10.2246 32.3379 8.2025 31.7778C6.45249 31.293 4.70644 30.7939 2.96117 30.2923C2.88585 30.2707 2.78886 30.1658 2.78116 30.0916C2.68354 29.1494 2.59997 28.2059 2.51383 27.2626C2.44799 26.5416 2.38278 25.8205 2.31876 25.0994C2.23117 24.1128 2.14521 23.126 2.05808 22.1394C1.99344 21.4075 1.92357 20.676 1.86401 19.9436C1.77321 18.8272 1.68929 17.7102 1.6025 16.5935C1.58018 16.3062 1.56323 16.0184 1.53492 15.7316C1.45139 14.8856 1.35706 14.0405 1.27931 13.194C1.22464 12.5987 1.19588 12.0011 1.14538 11.4054C1.06353 10.44 0.972723 9.4753 0.887059 8.5102C0.862538 8.23394 0.84682 7.95687 0.819968 7.68087C0.735554 6.81321 0.641598 5.94644 0.56339 5.07824C0.508787 4.47208 0.47881 3.86374 0.429202 3.25709C0.346718 2.2484 0.257303 1.24029 0.170807 0.231934C9.86894 0.231934 19.5671 0.231934 29.2957 0.261931C29.2611 1.20855 29.1965 2.1252 29.1304 3.04175C29.1105 3.31854 29.0899 3.59537 29.0634 3.87158C28.979 4.75053 28.8873 5.6288 28.8071 6.50812C28.7548 7.08229 28.725 7.65853 28.6718 8.23261C28.5924 9.09032 28.4948 9.94636 28.4173 10.8042C28.3624 11.4107 28.3385 12.02 28.2819 12.6263C28.1821 13.6957 28.0649 14.7635 27.9606 15.8325C27.8902 16.5534 27.8243 17.2748 27.7658 17.9968C27.695 18.8696 27.6346 19.7433 27.5688 20.6165C27.548 20.8932 27.5284 21.1701 27.5013 21.4462C27.4172 22.3035 27.3234 23.1599 27.2458 24.0178C27.191 24.6242 27.1634 25.2331 27.1111 25.8399C27.0308 26.7734 26.9388 27.7059 26.8535 28.639C26.8079 29.1378 26.7697 29.6374 26.7172 30.1354C26.7111 30.1929 26.6445 30.2757 26.5899 30.2915C25.8876 30.4947 25.1823 30.6875 24.478 30.8839C22.939 31.3131 21.4007 31.7449 19.861 32.172C18.5828 32.5265 17.3018 32.8709 16.0251 33.2306C15.7235 33.3156 15.434 33.444 15.139 33.5524ZM7.36207 13.7033C6.9635 13.7033 6.56493 13.7033 6.16375 13.7033C6.18603 14.012 6.19762 14.2886 6.2274 14.5631C6.30865 15.3121 6.41653 16.0589 6.47331 16.8096C6.4935 17.0765 6.55272 17.1588 6.82631 17.1582C10.7201 17.1498 14.6138 17.1543 18.5076 17.149C18.8111 17.1486 19.1145 17.0986 19.4579 17.068C19.264 18.8471 19.0765 20.5668 18.8908 22.2705C18.8001 22.3022 18.7224 22.3351 18.6417 22.3569C17.4309 22.6838 16.2201 23.0105 15.0082 23.3329C14.8897 23.3644 14.7531 23.4054 14.6424 23.3761C13.2909 23.018 11.9427 22.6476 10.609 22.2845C10.5149 21.2574 10.423 20.2534 10.3311 19.2502C9.09516 19.2502 7.89758 19.2502 6.7083 19.2502C6.88134 21.197 7.0531 23.1295 7.22532 25.0671C9.42781 25.6807 11.6402 26.2967 13.8523 26.9135C14.3793 27.0604 14.8786 27.1693 15.4495 26.9773C16.5074 26.6216 17.5989 26.3662 18.6761 26.068C19.8814 25.7344 21.0863 25.3996 22.2987 25.0633C22.2987 24.8773 22.2845 24.703 22.3011 24.5316C22.4045 23.4624 22.5166 22.394 22.6224 21.325C22.6906 20.6364 22.7555 19.9474 22.8172 19.2581C22.9066 18.2601 22.9909 17.2617 23.0789 16.2636C23.1425 15.5419 23.2095 14.8206 23.2735 14.0989C23.3611 13.1117 23.451 12.1246 23.533 11.1368C23.6036 10.2856 23.6596 9.43318 23.7318 8.58211C23.7604 8.24447 23.8254 7.90996 23.8554 7.57239C23.8889 7.1935 23.9016 6.81277 23.9234 6.43176C17.7894 6.43176 11.6888 6.43176 5.55614 6.43176C5.6338 7.55797 5.71014 8.66492 5.78607 9.766C10.5295 9.766 15.2672 9.766 20.0391 9.766C19.9443 11.0345 19.85 12.2972 19.7498 13.6382C18.5261 13.6382 17.3288 13.6313 16.1317 13.6397C13.7291 13.6565 11.3265 13.6823 8.9239 13.7027C8.42502 13.7069 7.92606 13.7033 7.36207 13.7033Z" fill="#D9D9D9"/>
</svg>
