<svg width="45" height="44" viewBox="0 0 45 44" fill="none" xmlns="http://www.w3.org/2000/svg">
<path d="M0.164406 26.1963C0.297825 26.4583 0.512997 26.6112 0.552849 26.801C1.98349 33.6143 5.76202 38.6984 11.8266 42.0792C12.7859 42.614 13.8241 43.0211 14.8548 43.4105C16.0764 43.872 16.7289 43.3902 16.7314 42.062C16.7344 40.495 16.6943 38.9279 16.6788 37.3607C16.6613 35.5856 16.7601 33.8394 18.0858 32.3843C17.1068 32.18 16.2085 32.0346 15.3332 31.8026C10.8819 30.6229 8.49823 27.6504 8.1828 23.0454C8.00085 20.389 8.3405 17.9134 10.129 15.7943C10.2661 15.632 10.2432 15.2671 10.1875 15.0206C9.82765 13.4266 9.86808 11.8632 10.3763 10.2997C10.5539 9.75346 10.8559 9.50188 11.3714 9.69582C12.8792 10.263 14.3938 10.8244 15.8541 11.4996C16.4056 11.7545 16.8365 11.9492 17.475 11.7906C20.5613 11.0241 23.6673 11.0092 26.7603 11.7698C27.3998 11.9271 27.8872 11.7936 28.4817 11.5012C29.8685 10.8191 31.3278 10.2798 32.7747 9.72691C33.4735 9.45987 33.8221 9.80697 34.0078 10.5117C34.3972 11.9898 34.4835 13.4512 34.1315 14.9507C34.0565 15.2701 34.1442 15.7317 34.3377 15.9947C38.7517 21.9923 35.5441 30.4863 28.2792 31.9861C27.6207 32.122 26.9577 32.2361 26.4497 32.3316C26.7962 33.1932 27.1055 34.0336 27.4772 34.8454C27.5951 35.1028 27.8397 35.3809 28.0938 35.4851C30.3889 36.4268 32.4478 35.7769 33.8861 33.684C34.6364 32.5923 35.4421 31.5599 36.8498 31.3209C37.3338 31.2387 37.8436 31.3078 38.3416 31.3078C38.3795 31.4071 38.4175 31.5064 38.4554 31.6057C38.2171 31.8765 37.9738 32.1431 37.7413 32.4188C36.9332 33.3772 35.7881 34.2161 35.3897 35.3231C34.3642 38.1721 31.7229 38.8452 28.9939 38.5585C28.5809 38.5151 28.1683 38.4673 27.6475 38.4095C27.6475 39.8059 27.6141 41.1076 27.6583 42.4067C27.6924 43.4077 28.4139 43.804 29.485 43.4324C32.773 42.2917 35.6304 40.4623 38.0477 37.9618C41.0901 34.8147 43.0386 31.0906 43.8718 26.7867C43.9126 26.576 44.0404 26.3821 44.1963 26.2342C44.265 23.8667 44.265 21.4452 44.1989 18.9939C44.0414 18.7373 43.911 18.5183 43.8642 18.2826C40.955 3.62034 24.313 -4.0118 11.3677 3.41961C5.54004 6.76501 1.96183 11.7911 0.550705 18.3642C0.512486 18.5423 0.29715 18.6823 0.164406 18.84C0.164406 21.2615 0.164406 23.683 0.164406 26.1963Z" fill="#D9D9D9"/>
</svg>
