<svg width="35" height="34" viewBox="0 0 35 34" fill="none" xmlns="http://www.w3.org/2000/svg">
<g clip-path="url(#clip0_9_1232)">
<path d="M2.7789 0.252197C12.5638 0.252197 22.3487 0.252197 32.1641 0.282649C32.1513 1.00728 32.1098 1.70159 32.0641 2.39562C32.0009 3.35568 31.9363 4.31567 31.8686 5.27543C31.8063 6.15965 31.7379 7.04345 31.6744 7.9276C31.6078 8.85489 31.5444 9.78242 31.4786 10.7098C31.4143 11.6155 31.3483 12.5212 31.2836 13.427C31.2182 14.3435 31.1531 15.2601 31.0884 16.1767C31.0229 17.104 30.9584 18.0315 30.893 18.9589C30.8283 19.8755 30.7632 20.792 30.6977 21.7086C30.633 22.6143 30.5674 23.52 30.5027 24.4257C30.4372 25.3423 30.3691 26.2586 30.3084 27.1755C30.2582 27.9334 30.2172 28.6919 30.1724 29.4464C29.4165 29.6938 28.6738 29.9364 27.9315 30.1798C26.1574 30.7617 24.3824 31.3412 22.6096 31.9269C21.3024 32.3589 19.9968 32.796 18.6931 33.2385C18.4153 33.3328 18.1489 33.4604 17.8772 33.5726C17.68 33.5726 17.4828 33.5726 17.2489 33.549C16.7482 33.3688 16.285 33.2097 15.82 33.0562C14.235 32.5329 12.6498 32.0105 11.0639 31.4899C8.97638 30.8047 6.88816 30.1215 4.83086 29.4475C4.75294 28.4963 4.67351 27.5702 4.60217 26.6435C4.53247 25.7381 4.46984 24.8321 4.40629 23.9263C4.33972 22.9772 4.27686 22.0279 4.21024 21.0789C4.1691 20.493 4.12271 19.9074 4.0809 19.3216C4.01471 18.3942 3.94569 17.467 3.88669 16.5391C3.83637 15.7478 3.79956 14.9556 3.75455 14.1639C3.73574 13.8329 3.71412 13.502 3.6887 13.1715C3.6036 12.0649 3.51358 10.9586 3.43106 9.85184C3.40079 9.44575 3.39506 9.03777 3.36267 8.63189C3.28125 7.61172 3.18847 6.59246 3.10527 5.57242C3.05664 4.97624 3.01117 4.37965 2.97573 3.78257C2.9059 2.60603 2.84405 1.42901 2.7789 0.252197ZM23.5716 9.03786C24.5979 9.03786 25.6241 9.03786 26.6511 9.03786C26.7467 7.71821 26.8397 6.43449 26.9327 5.14954C20.6115 5.14954 14.3372 5.14954 8.03984 5.14954C8.08785 5.63192 8.14356 6.09583 8.17834 6.56132C8.25004 7.521 8.3145 8.48126 8.37446 9.44176C8.42388 10.2333 8.46159 11.0256 8.50636 11.8174C8.5257 12.1593 8.5456 12.5013 8.57243 12.8426C8.65687 13.917 8.7476 14.9908 8.83014 16.0653C8.87812 16.6899 8.91508 17.3152 8.95845 17.9618C13.3835 17.9618 17.7707 17.9618 22.1863 17.9618C22.1367 18.4957 22.079 19.0026 22.0446 19.5111C21.9723 20.5792 21.9067 21.6479 21.8525 22.717C21.8438 22.8904 21.8064 22.977 21.6315 23.0336C20.3112 23.4605 18.995 23.9006 17.6751 24.329C17.5784 24.3604 17.4543 24.3595 17.3571 24.3288C16.2028 23.9652 15.0506 23.5948 13.8991 23.2226C13.1428 22.9782 13.1361 22.9756 13.1314 22.1535C13.1301 21.9269 13.0613 21.8522 12.8325 21.8541C11.7265 21.8637 10.6203 21.8581 9.51415 21.859C9.42422 21.8591 9.33431 21.8671 9.26035 21.8706C9.33522 23.0796 9.41279 24.2648 9.47807 25.4506C9.48938 25.656 9.53287 25.7637 9.75787 25.8382C12.2831 26.6741 14.8025 27.5277 17.3249 28.3722C17.4166 28.4029 17.5338 28.4201 17.6216 28.3909C20.1758 27.5414 22.7282 26.6865 25.2783 25.8248C25.3631 25.7962 25.4687 25.6963 25.4826 25.6155C25.5278 25.3537 25.5368 25.0855 25.5561 24.8196C25.6221 23.9137 25.6872 23.0077 25.7515 22.1017C25.8174 21.1742 25.8866 20.2468 25.9456 19.3188C25.9959 18.5273 26.0324 17.7349 26.0779 16.9431C26.0975 16.6015 26.1212 16.26 26.1488 15.9188C26.1983 15.3047 26.2522 14.6909 26.3068 14.0478C21.6844 14.0478 17.1242 14.0478 12.5403 14.0478C12.4232 12.3681 12.3077 10.7116 12.191 9.03786C16.0047 9.03786 19.7556 9.03786 23.5716 9.03786Z" fill="#D9D9D9"/>
</g>
<defs>
<clipPath id="clip0_9_1232">
<rect width="33.3204" height="33.3204" fill="white" transform="translate(0.761444 0.187012)"/>
</clipPath>
</defs>
</svg>
