<svg width="45" height="45" viewBox="0 0 45 45" fill="none" xmlns="http://www.w3.org/2000/svg">
<path d="M11.5844 38.4684C10.3522 38.4707 9.24614 38.1782 8.33437 37.3942C7.5123 36.6874 6.96511 35.7829 6.85035 34.6865C6.77021 33.9208 6.7584 33.1456 6.75733 32.3745C6.74995 27.092 6.74722 21.8095 6.75903 16.527C6.76126 15.5301 6.99242 14.5855 7.60755 13.7622C8.46999 12.608 9.59651 11.9513 11.0514 11.9427C13.3625 11.9291 15.6736 11.9382 17.9847 11.9395C19.0301 11.9401 19.875 12.675 20.0811 13.8231C20.2322 14.6643 19.7684 15.8459 18.7731 16.1688C18.3874 16.2939 17.976 16.402 17.5749 16.4071C15.6517 16.4316 13.728 16.4181 11.8045 16.4182C11.6357 16.4182 11.4669 16.4182 11.2655 16.4182C11.2655 22.2851 11.2655 28.1037 11.2655 33.9558C17.0985 33.9558 22.917 33.9558 28.78 33.9558C28.7882 33.7788 28.8025 33.6119 28.8027 33.4451C28.8043 31.4641 28.7913 29.4831 28.8098 27.5023C28.8177 26.6466 29.1185 25.9036 29.8991 25.4536C30.6578 25.0164 31.4288 24.9957 32.208 25.4437C32.9141 25.8497 33.2807 26.4417 33.2817 27.2532C33.2847 29.5787 33.2839 31.9041 33.2825 34.2296C33.2812 36.3181 31.4796 38.2623 29.3991 38.3801C28.5574 38.4278 27.7137 38.4633 26.8709 38.4646C21.7894 38.4723 16.7079 38.4684 11.5844 38.4684Z" fill="#D9D9D9"/>
<path d="M29.7407 11.9408C27.8992 11.9396 26.091 11.9405 24.2827 11.9386C23.2133 11.9375 22.325 10.9824 22.2428 9.92234C22.121 8.35042 23.3912 7.44757 24.7092 7.45414C28.2251 7.47165 31.7412 7.45926 35.2573 7.4605C36.7936 7.46104 37.761 8.43152 37.7615 9.97253C37.7626 13.5316 37.7636 17.0907 37.7606 20.6498C37.7597 21.7246 37.1202 22.6341 36.1427 22.9043C34.4735 23.3655 33.213 22.0319 33.2651 20.8018C33.3361 19.1257 33.2828 17.4443 33.2828 15.7652C33.2828 15.6141 33.2828 15.463 33.2828 15.3119C33.2127 15.26 33.1426 15.2081 33.0726 15.1561C32.9935 15.3092 32.9468 15.4944 32.8308 15.6106C28.4119 20.0406 23.9872 24.4648 19.5618 28.8883C18.268 30.1816 16.1878 29.7085 15.6975 27.9888C15.4329 27.0608 15.7275 26.2604 16.4098 25.5793C20.8179 21.1791 25.22 16.7729 29.6239 12.3685C29.7151 12.2772 29.8079 12.1863 29.8857 12.0844C29.8949 12.0723 29.8133 11.9909 29.7407 11.9408Z" fill="#D9D9D9"/>
</svg>
